<?xml version="1.0" encoding="UTF-8" standalone="no"?>
<!-- Created with Inkscape (http://www.inkscape.org/) -->

<svg
   xmlns:dc="http://purl.org/dc/elements/1.1/"
   xmlns:cc="http://creativecommons.org/ns#"
   xmlns:rdf="http://www.w3.org/1999/02/22-rdf-syntax-ns#"
   xmlns:svg="http://www.w3.org/2000/svg"
   xmlns="http://www.w3.org/2000/svg"
   xmlns:sodipodi="http://sodipodi.sourceforge.net/DTD/sodipodi-0.dtd"
   xmlns:inkscape="http://www.inkscape.org/namespaces/inkscape"
   width="210mm"
   height="297mm"
   viewBox="0 0 210 297"
   version="1.1"
   id="svg52"
   inkscape:version="0.92.4 (5da689c313, 2019-01-14)"
   sodipodi:docname="powerups.svg">
  <defs
     id="defs46" />
  <sodipodi:namedview
     id="base"
     pagecolor="#ffffff"
     bordercolor="#666666"
     borderopacity="1.0"
     inkscape:pageopacity="0.0"
     inkscape:pageshadow="2"
     inkscape:zoom="2.8"
     inkscape:cx="143.44918"
     inkscape:cy="869.36252"
     inkscape:document-units="mm"
     inkscape:current-layer="layer1"
     showgrid="true"
     inkscape:window-width="1600"
     inkscape:window-height="874"
     inkscape:window-x="0"
     inkscape:window-y="26"
     inkscape:window-maximized="1">
    <inkscape:grid
       type="xygrid"
       id="grid54" />
  </sodipodi:namedview>
  <metadata
     id="metadata49">
    <rdf:RDF>
      <cc:Work
         rdf:about="">
        <dc:format>image/svg+xml</dc:format>
        <dc:type
           rdf:resource="http://purl.org/dc/dcmitype/StillImage" />
        <dc:title></dc:title>
      </cc:Work>
    </rdf:RDF>
  </metadata>
  <g
     inkscape:label="Layer 1"
     inkscape:groupmode="layer"
     id="layer1">
    <path
       style="fill:#000000;stroke-width:0.99999994"
       d="M 155.91211 217.48438 L 142.53906 224.09766 C 142.33437 226.11814 142.03101 228.12551 141.83984 230.14648 C 141.88503 232.79178 141.95891 235.43805 141.88672 238.08398 C 141.87956 241.3296 141.68762 244.56488 141.47461 247.80273 C 141.09829 252.89096 140.55956 257.96733 140.41602 263.07031 C 140.24826 269.24952 140.85713 275.40822 140.64453 281.58984 C 140.63112 281.83275 140.61715 282.07547 140.60352 282.31836 C 138.16993 278.18686 136.05501 273.87681 133.85352 269.61914 C 132.85622 267.66473 131.66988 265.79661 130.93164 263.7207 C 130.23176 262.05314 129.68141 260.34041 128.85352 258.73047 C 128.67016 258.10197 127.97675 257.63153 127.91016 256.98242 C 127.90789 256.9306 127.90434 256.87799 127.90234 256.82617 L 114.57422 263.93164 C 114.59735 264.01645 114.61952 264.10269 114.64258 264.1875 C 114.90753 264.94989 115.43461 265.49699 115.86328 266.17578 C 116.7326 267.71966 117.2445 269.41894 117.80469 271.09375 C 118.8044 273.10072 120.03928 274.96552 121.20898 276.875 C 124.06768 281.91354 126.66941 287.09906 129.31836 292.25 C 130.33432 294.3199 131.64453 296.23056 132.55273 298.35938 L 139.95508 294.06836 C 139.80226 297.19586 139.67615 300.32444 139.63281 303.45703 C 139.45344 308.01857 139.17201 312.58736 139.62305 317.13867 C 138.53971 314.3249 137.20138 311.61171 135.81445 308.93555 C 134.14462 305.40891 131.49601 302.5155 129.03906 299.53125 C 125.8639 295.78032 122.60136 292.09731 119.52539 288.26367 C 118.08612 286.11872 115.99482 284.56023 114.08594 282.86328 C 113.04415 282.00804 112.28752 280.84467 111.16797 280.08789 C 110.97219 280.06347 110.54056 279.54644 110.72852 279.99805 L 97.638672 287.53906 C 97.877062 287.94993 98.037341 288.44966 98.582031 288.38477 C 99.788759 288.66295 100.45376 290.06852 101.46875 290.70117 C 103.33608 292.35067 105.29994 293.9132 106.85547 295.88086 C 110.10884 299.56188 113.53034 303.0986 116.50586 307.02148 C 118.81839 309.99717 121.26028 312.90769 123.08398 316.22266 C 124.99291 319.76534 126.77233 323.40442 127.54883 327.38672 L 140.66992 320.16016 C 140.45719 319.45564 140.21807 318.76108 139.96875 318.07031 L 152.9707 311.17188 C 152.8399 310.47264 152.7408 309.76977 152.65625 309.06641 L 164.79883 303.68555 C 166.28793 301.28068 167.78626 298.90778 169.02344 296.36133 C 171.06803 293.0194 172.46623 289.37734 173.84375 285.72852 C 175.30271 281.00944 177.18982 276.44237 178.61914 271.71484 C 179.6025 267.87818 180.78265 264.10022 182.00195 260.33398 C 182.92404 257.66452 183.7655 254.96833 184.4668 252.23242 C 185.03912 249.43937 185.82626 246.70321 186.51367 243.9375 C 186.89149 242.48414 187.26766 241.03779 187.47852 239.55078 L 173.99219 246.18164 C 173.78973 247.579 173.4678 248.95788 173.15625 250.33398 C 172.45355 253.08863 171.66877 255.82036 171.10742 258.60938 C 170.36758 261.3073 169.39882 263.93063 168.65234 266.62695 C 167.49453 270.3846 166.37557 274.15517 165.39258 277.96289 C 163.91455 282.65696 162.1908 287.27225 160.53711 291.90625 C 159.11898 295.53379 157.54582 299.08839 155.55078 302.44336 C 154.61536 304.19463 153.56685 305.8791 152.5 307.55273 C 152.21758 304.04316 152.37434 300.49726 152.43359 296.98047 C 152.42903 289.689 153.12207 282.42944 153.43555 275.15039 C 153.46087 268.92527 153.14836 262.71051 153.45117 256.49023 C 153.55169 251.39598 154.08502 246.33254 154.58008 241.26562 C 155.06726 237.99117 154.99939 234.68222 155.08008 231.38281 C 155.05525 228.70657 155.12501 226.03106 155.16016 223.35547 C 155.42091 221.39918 155.63877 219.43915 155.91211 217.48438 z M 201.3418 277.20703 L 187.55664 283.22656 C 187.14781 283.68257 187.37733 283.46621 186.85547 283.86523 C 186.00951 284.5792 185.00029 285.16282 184.4082 286.11523 C 182.31847 287.01498 182.5406 286.69904 182.32617 287.28906 C 182.93029 286.95142 183.60517 286.58168 184.36328 286.17188 C 183.79508 286.87718 182.82614 287.62071 181.80859 288.27148 C 181.58071 288.63759 181.27839 289.08565 180.80859 289.70117 C 179.61382 291.18486 178.42682 292.6713 177.24023 294.16211 C 174.65014 297.29667 172.04543 300.42841 169.20508 303.3418 C 165.74356 306.91303 162.32736 310.52412 159.33203 314.50586 C 156.12975 318.39824 153.01084 322.45822 149.21875 325.79492 L 163.11719 320.2168 C 166.39353 316.50925 169.53403 312.67285 172.65234 308.83008 C 175.66563 304.84271 179.23699 301.35206 182.66211 297.73242 C 185.5368 294.7271 188.1724 291.50379 190.90625 288.37109 C 191.95151 286.96109 193.09821 285.6473 194.19336 284.2793 C 195.65062 283.32552 196.90693 282.12559 198.16797 280.18945 C 199.18097 279.74288 199.94925 278.93842 200.7793 278.22852 C 201.18 277.52589 200.99385 277.86853 201.3418 277.20703 z M 181.80859 288.27148 C 182.10567 287.79422 182.2567 287.48022 182.32617 287.28906 C 174.89611 291.44176 178.5497 290.35572 181.80859 288.27148 z M 195.25391 280.53906 C 189.46854 283.75354 186.49302 285.19168 184.76562 285.95508 C 187.34504 284.56758 190.70053 282.82106 195.25391 280.53906 z M 195.66211 282.35742 C 195.78037 282.34227 196.08868 282.44474 195.98633 282.50586 C 195.71633 282.66709 195.44267 282.82255 195.17188 282.98242 C 195.32461 282.6716 195.4797 282.38076 195.66211 282.35742 z "
       transform="scale(0.26458333)"
       id="path90"
       inkscape:export-xdpi="96"
       inkscape:export-ydpi="96" />
    <path
       style="fill:none;stroke:#000000;stroke-width:0.28013104px;stroke-linecap:butt;stroke-linejoin:miter;stroke-opacity:1"
       d="m 22.761941,85.834181 c 0,-32.243074 0,-32.243074 0,-32.243074 H 56.348476 V 87.177643 H 22.761941 Z"
       id="path114"
       inkscape:connector-curvature="0"
       inkscape:export-xdpi="96"
       inkscape:export-ydpi="96" />
  </g>
</svg>
